<svg id="regular" enable-background="new 0 0 24 24" height="512" viewBox="0 0 24 24" width="512" xmlns="http://www.w3.org/2000/svg"><path d="m22.25 0h-20.5c-.965 0-1.75.785-1.75 1.75v20.5c0 .965.785 1.75 1.75 1.75h20.5c.965 0 1.75-.785 1.75-1.75v-20.5c0-.965-.785-1.75-1.75-1.75zm-3.25 22.5h-14v-2.361c0-1.731 1.373-3.139 3.06-3.139h7.881c1.687 0 3.06 1.408 3.06 3.139v2.361zm3.5-.25c0 .138-.112.25-.25.25h-1.75v-2.361c0-2.558-2.045-4.639-4.56-4.639h-7.88c-2.514 0-4.56 2.081-4.56 4.639v2.361h-1.75c-.138 0-.25-.112-.25-.25v-20.5c0-.138.112-.25.25-.25h20.5c.138 0 .25.112.25.25z"/><path d="m12 5c-2.481 0-4.5 2.019-4.5 4.5s2.019 4.5 4.5 4.5 4.5-2.019 4.5-4.5-2.019-4.5-4.5-4.5zm0 7.5c-1.654 0-3-1.346-3-3s1.346-3 3-3 3 1.346 3 3-1.346 3-3 3z"/></svg>